<svg id="Layer_1" data-name="Layer 1" xmlns="http://www.w3.org/2000/svg" width="37.02" height="78.03" viewBox="0 0 12.34 26.01">
  <title>marker</title>
  <g id="Anton_inner">
    <path d="M16.18,13.63a4.3,4.3,0,0,1,2.56.51s3.07,2.86-1.28,5.58l-.23-.93s2.09-1.92,1-3.66Z" transform="translate(-8.08 -2.53)" fill="#616571"/>
    <path d="M13.27,13.54s-2.23-.14-3,.53c0,0-3.07,2.86,1.28,5.58l.23-.93s-2.09-1.92-1-3.66Z" transform="translate(-8.08 -2.53)" fill="#616571"/>
    <rect x="3.09" y="10.99" width="6.48" height="8.69" rx="1.24" ry="1.24" fill="#616571"/>
    <path d="M11.24,19.63a4,4,0,0,0,1-1.66l.17,0s-.66,1.65-1.06,1.71Z" transform="translate(-8.08 -2.53)" fill="#52565f"/>
    <path d="M17.74,19.7a4,4,0,0,1-1-1.66l-.17,0s.66,1.65,1.06,1.71Z" transform="translate(-8.08 -2.53)" fill="#52565f"/>
    <polygon points="4.58 11.39 4.46 12.58 5.86 12.16 5.86 11.79 4.58 11.39" fill="#52565f"/>
    <path d="M16.29,14.89l1,.41L17.37,14a9.52,9.52,0,0,1-1.08.61Z" transform="translate(-8.08 -2.53)" fill="#52565f"/>
    <polygon points="3.76 13.19 5.33 13.19 5.33 13.39 4.54 13.7 3.76 13.39 3.76 13.19" fill="#52565f"/>
    <polygon points="8.39 13.24 9.41 13.24 9.41 13.36 8.9 13.54 8.39 13.36 8.39 13.24" fill="#52565f"/>
    <polygon points="3.84 13.43 3.84 14.57 5.19 14.57 5.19 13.46 5.09 13.46 5.08 14.35 3.94 14.35 3.94 13.43 3.84 13.43" fill="#52565f"/>
    <polygon points="8.45 13.33 8.45 14.48 9.35 14.48 9.35 13.36 9.29 13.36 9.28 14.25 8.51 14.25 8.51 13.33 8.45 13.33" fill="#52565f"/>
    <circle cx="5.69" cy="13.01" r="0.12" fill="#a1916c"/>
    <circle cx="5.69" cy="14.63" r="0.12" fill="#a1916c"/>
    <circle cx="5.69" cy="16.39" r="0.12" fill="#a1916c"/>
    <circle cx="5.69" cy="18.22" r="0.12" fill="#a1916c"/>
    <path d="M11.69,12.47s4.63-1.33,6.62.22c0,0,.68,1.5-.73,1a5.3,5.3,0,0,1-2.18,1.17s-3.52-1.47-3.94-1.22C11.46,13.66,10.9,13.22,11.69,12.47Z" transform="translate(-8.08 -2.53)" fill="#999"/>
    <path d="M17.15,12.75s1,.15.79.39c0,0-1.71.56-2.06,1.08Z" transform="translate(-8.08 -2.53)" fill="#6a6a6a"/>
    <path d="M12.21,12.8s-.55.08-.37.25a4.89,4.89,0,0,1,1.58.82Z" transform="translate(-8.08 -2.53)" fill="#6a6a6a"/>
    <ellipse cx="6.17" cy="24.95" rx="6.17" ry="1.06" fill="#181b12" opacity="0.32" style="isolation: isolate"/>
    <path d="M16.52,27.26H18.8c.2,0,.33,0,.33-.24h0c-.08-.22-.73-.4-.93-.4l-1.68-.13c-.2,0-.15,0-.36.38h0C15.93,27.36,16.33,27.26,16.52,27.26Z" transform="translate(-8.08 -2.53)" fill="#e3e0e1"/>
    <path d="M12.06,27.26H9.78c-.2,0-.33,0-.33-.24h0c.08-.22.73-.4.93-.4l1.68-.13c.2,0,.15,0,.36.38h0C12.65,27.36,12.26,27.26,12.06,27.26Z" transform="translate(-8.08 -2.53)" fill="#e3e0e1"/>
    <path d="M11.19,21.13s0,4.12.65,5.45a.2.2,0,0,0,.34,0s-.29-3.75.95-4.19A5,5,0,0,1,16,22.6a9.64,9.64,0,0,1,.33,4s.06.34.36,0c0,0,1.16-3.5.94-5.55Z" transform="translate(-8.08 -2.53)" fill="#e2bd9d"/>
    <rect x="1.3" y="24.52" width="3.17" height="0.22" rx="0.07" ry="0.07" fill="#f8f3ef"/>
    <rect x="7.95" y="24.52" width="3.17" height="0.22" rx="0.07" ry="0.07" fill="#f8f3ef"/>
    <path d="M18.43,7.89c0,3.61-2,6.42-2.85,6.42-2.15,0-3.84-.8-4.68-6.26-.66-4.24,2.46-4.9,3.52-4.82C16.77,3.39,18.44,3.62,18.43,7.89Z" transform="translate(-8.08 -2.53)" fill="#e2bd9d"/>
    <path d="M11.57,9.7c.06,1.22-.23,1.44-.8,1.29A3,3,0,0,1,10,9.15c0-.71.36-.74.8-.74S11.53,9,11.57,9.7Z" transform="translate(-8.08 -2.53)" fill="#e2bd9d"/>
    <ellipse cx="5.46" cy="6" rx="1" ry="0.91" fill="#fefeff"/>
    <ellipse cx="8.79" cy="6.05" rx="0.88" ry="0.85" fill="#fefeff"/>
    <path d="M13.6,8.65a.33.33,0,0,1-.24.4A.31.31,0,0,1,13,8.8h0a.33.33,0,0,1,.24-.39.31.31,0,0,1,.36.25Z" transform="translate(-8.08 -2.53)" fill="#1b191a"/>
    <path d="M16.82,9a.27.27,0,0,1-.38,0l0,0a.33.33,0,0,1,.06-.43.27.27,0,0,1,.38,0l0,0A.33.33,0,0,1,16.82,9Z" transform="translate(-8.08 -2.53)" fill="#1b191a"/>
    <path d="M10.35,9.14s0-.46.29-.35a.69.69,0,0,1,.28.68s-.41.13-.4.42a.52.52,0,0,0,.33.21s.15,0,0,.25h0A1,1,0,0,1,10.35,9.14Z" transform="translate(-8.08 -2.53)" fill="#c8a186"/>
    <rect x="4.06" y="4.92" width="2.6" height="0.69" fill="#e2bd9d"/>
    <rect x="7.91" y="4.92" width="1.75" height="0.69" fill="#e2bd9d"/>
    <path d="M14.73,12.17l.09,0,.54-.19.18.1.38-.1.28.1a.28.28,0,0,1,.2.19H14.78Z" transform="translate(-8.08 -2.53)" fill="#b8957d"/>
    <path d="M14.82,12.36h1.36s0,.19-.59.22C15.59,12.58,15.33,12.67,14.82,12.36Z" transform="translate(-8.08 -2.53)" fill="#d1aa90"/>
    <path d="M15.65,8.25s.59,2.59,1.08,2.9c0,0-.25.59-1.35.32,0,0-.31-.14,0-.13a1.71,1.71,0,0,0,1.18-.14,12.15,12.15,0,0,1-1.06-2.87S15.52,8.12,15.65,8.25Z" transform="translate(-8.08 -2.53)" fill="#b8957d"/>
    <path d="M14.6,7.33a5.9,5.9,0,0,0-2.07.09s-.87.43-.91.57l1-.27,2,.07A.39.39,0,0,0,14.6,7.33Z" transform="translate(-8.08 -2.53)" fill="#59473a"/>
    <path d="M15.71,7.33a4.34,4.34,0,0,1,1.72.06s.72.4.75.53l-.8-.25-1.63.08A.41.41,0,0,1,15.71,7.33Z" transform="translate(-8.08 -2.53)" fill="#59473a"/>
    <path d="M17.74,4.78s-4.67-.26-6.69,1c0,0,.69-2.28,1.74-2.81a6.88,6.88,0,0,1,3.4-.43S17.28,2.8,17.74,4.78Z" transform="translate(-8.08 -2.53)" fill="#313232"/>
    <path d="M11.05,5.83s1.62-1.25,9.19-1.27c0,0,.22,0-.12.27l-1.89,1-.42-1.08S12.79,4.68,11.05,5.83Z" transform="translate(-8.08 -2.53)" fill="#5c4a3a"/>
    <path d="M20.31,4.56a2.63,2.63,0,0,0-1-.27s-7.35.55-8.22,1.54C11.05,5.83,13.56,4.61,20.31,4.56Z" transform="translate(-8.08 -2.53)" fill="#755b3f"/>
    <path d="M14.29,2.62a2.49,2.49,0,0,0-1.1,2.44s-2,.4-2.34,1c0,0,.41-2.68,1.48-3Z" transform="translate(-8.08 -2.53)" fill="#1d2020"/>
    <path d="M12.19,5.44a3,3,0,0,0-.32,1.06s-.56.09-.67.43l-.06,1.24.1.72a.68.68,0,0,1-.46-.49,4.36,4.36,0,0,1,.08-.85,5.34,5.34,0,0,1,0-1.47S10.79,5.76,12.19,5.44Z" transform="translate(-8.08 -2.53)" fill="#473629"/>
    <polygon points="9.73 2.26 10.16 3.73 10.34 4.79 10.45 4.4 10.35 3.52 9.73 2.26" fill="#473629"/>
    <ellipse cx="2.98" cy="8.09" rx="0.26" ry="0.28" fill="#121210"/>
    <ellipse cx="2.98" cy="8.1" rx="0.1" ry="0.1" fill="#fff"/>
    <path d="M15.06,13.12a1.74,1.74,0,0,1,.87,0Z" transform="translate(-8.08 -2.53)" fill="#d1aa90"/>
    <path d="M11.19,21.13a18.85,18.85,0,0,0,.52,5.11h.62s-.26-3.46.81-3.85c0,0,2.59-.19,2.93.21,0,0,.47,3.21.22,3.64H17s.92-3.71.69-5.19Z" transform="translate(-8.08 -2.53)" fill="#484d4e"/>
    <polygon points="5.86 11.79 5.86 18.56 8.27 18.53 8.21 12.01 7.21 12.08 5.86 11.79" fill="#999"/>
    <path d="M11.91,26.65s0,.09.06.1.15,0,.17,0a.18.18,0,0,1,.13.05s.11.14.14.08-.1-.31-.18-.35,0,0-.07,0S12.2,26.7,11.91,26.65Z" transform="translate(-8.08 -2.53)" fill="#406338"/>
    <path d="M16.66,26.68s0,.06,0,.08h-.14s-.14,0-.18,0-.11.14-.14.08.1-.31.18-.35,0,0,.07,0S16.37,26.73,16.66,26.68Z" transform="translate(-8.08 -2.53)" fill="#406338"/>
    <path d="M14.75,12.14s-.07,0,.15,0l-.11.13s-.15,0-.15-.11Z" transform="translate(-8.08 -2.53)" fill="#b8957d"/>
    <path d="M16.3,12.14s.19,0,.22,0,0,.12-.11.12S16.3,12.14,16.3,12.14Z" transform="translate(-8.08 -2.53)" fill="#b8957d"/>
    <path d="M15.9,8.37a2.49,2.49,0,0,1,1.91,0l-.19-.23H16Z" transform="translate(-8.08 -2.53)" fill="#e2bd9d"/>
    <path d="M12.39,8.37a3.77,3.77,0,0,1,2.48,0l-.4-.23H12.6Z" transform="translate(-8.08 -2.53)" fill="#e2bd9d"/>
    <path d="M12.62,10.81s1,.42.91.81l.23.91-.13-1.08A1.34,1.34,0,0,0,12.62,10.81Z" transform="translate(-8.08 -2.53)" fill="#d7b39b"/>
  </g>
</svg>
